<svg width="80" height="80" viewBox="0 0 80 80" xmlns="http://www.w3.org/2000/svg">
  <defs>
    <linearGradient id="grad1" x1="0%" y1="0%" x2="100%" y2="100%">
      <stop offset="0%" style="stop-color:#FF6B6B;stop-opacity:1" />
      <stop offset="100%" style="stop-color:#FF8E8E;stop-opacity:1" />
    </linearGradient>
    <clipPath id="face">
      <circle cx="40" cy="40" r="35"/>
    </clipPath>
  </defs>
  
  <!-- Background -->
  <circle cx="40" cy="40" r="40" fill="url(#grad1)"/>
  
  <!-- Face shape -->
  <circle cx="40" cy="42" r="28" fill="#F4D03F" clip-path="url(#face)"/>
  
  <!-- Hair -->
  <path d="M15 25 Q40 15 65 25 Q60 35 55 30 Q50 25 40 28 Q30 25 25 30 Q20 35 15 25" fill="#2C3E50"/>
  
  <!-- Eyes -->
  <ellipse cx="32" cy="38" rx="3" ry="2" fill="#2C3E50"/>
  <ellipse cx="48" cy="38" rx="3" ry="2" fill="#2C3E50"/>
  <circle cx="32" cy="38" r="1" fill="white"/>
  <circle cx="48" cy="38" r="1" fill="white"/>
  
  <!-- Nose -->
  <ellipse cx="40" cy="45" rx="1.5" ry="2" fill="#E67E22"/>
  
  <!-- Mouth -->
  <path d="M35 50 Q40 52 45 50" stroke="#E74C3C" stroke-width="1.5" fill="none"/>
  
  <!-- Signature V features -->
  <circle cx="40" cy="40" r="35" fill="none" stroke="white" stroke-width="2" opacity="0.3"/>
</svg> 